<svg id="Graphic_Elements" data-name="Graphic Elements" xmlns="http://www.w3.org/2000/svg" viewBox="0 0 1200 1200"><g id="Graphic_Elements-2" data-name="Graphic Elements"><path id="path3937" d="M211,1127.46c-33.93-5.38-69.51-19.33-85.14-33.37-13.64-12.27-32.4-35.47-40.77-50.41-9.22-16.49-14.07-31.53-20.6-63.92-5.12-25.39-5.41-29.42-3.29-46.77,3.39-27.77,9.53-48.11,22.81-75.52,9.7-20,14.37-26.92,26.35-38.91,8-8,16.65-15.23,19.18-16,8-2.54,5-5.47-5.58-5.48-18.21,0-48.61-4.36-53.6-7.62-6.29-4.12-6.17-5.74,1.89-25.89,12.84-32.1,26.3-48.54,70.52-86.14,20.74-17.63,32.45-22.88,70.37-31.54,43.59-10,49.59-10.64,66-7.38,17.5,3.47,20.69,2,25.81-12,.86-2.36,1.74-8.71,2-14.11a49,49,0,0,1,5-18.24c3.51-6.38,6.16-19.89,11-55.91,7.09-53.15,11.14-71.1,23.42-103.78s18.18-45.32,27.92-59.67c11.77-17.33,23.71-27.25,44.92-37.32,9.8-4.65,17.46-9.54,17-10.85s-6.77-2.53-15.09-2.72c-10.95-.26-16.94-1.71-25.61-6.21-13.69-7.1-23.41-7.44-44.88-1.54-28.77,7.92-41.2,6.26-28.43-3.78,5.43-4.27,15.74-7.77,36.24-12.31,6.91-1.53,8.44-2.73,7.85-6.16-.4-2.34-1.56-4.56-2.56-4.93s-1.46-1.82-1-3.22,1.3-11.56,1.89-22.58c1.85-34.85,11.79-47.86,37.69-49.33,19.69-1.11,26.17,1.4,51.62,20C476,250,487.31,255.49,494.19,253.3c7.57-2.4,19.56-17.59,33.14-42,7.56-13.57,18.11-30.47,23.46-37.55s13.11-18.26,17.28-24.83a88.51,88.51,0,0,1,18.57-20c11.09-8.14,12.79-10.64,8.86-13.07-4.67-2.89-2.18-15.72,4.84-24.93,23-30.13,70.84-24.48,78.95,9.32,5.26,21.94-9.73,53.29-27,56.53-14,2.62-22.62-.67-34.85-13.24-15.25-15.68-15.8-15.33-50.73,32.45-21.48,29.4-36.65,54.73-44,73.49l-4.43,11.32,5.9,2.28c19.24,7.44,47.69,10.18,59.9,5.76,5.93-2.14,8.86-1.95,17.56,1.18,5.74,2.07,23.84,5.17,40.22,6.9,26.17,2.75,30.39,3.75,34.87,8.22,3.91,3.92,5.12,7.51,5.21,15.53.24,22.13-4.16,25-26.87,17.19-21.46-7.34-52.58-11.08-69.94-8.41-10.91,1.68-13.82,1.52-14.72-.81-1.66-4.32-8.13-3.53-19.95,2.46-13.78,7-25.76,17.61-25.76,22.84,0,6.58,7.16,18.78,21.21,36.17,7.24,9,14.58,20.75,16.56,26.61,5,14.84,3,40.89-5.64,73.16-16.11,60.06-19.2,72.94-23.8,99.07-6.12,34.81-6.72,93.48-1.27,125.17,6.84,39.77,21.8,80.42,33.46,90.95,3.95,3.56,6.73,3.91,22.23,2.78,22-1.62,47.23-8,66.54-16.92,24.18-11.14,36.21-28.24,51-72.51,5.78-17.26,6.57-22.1,5.37-32.73-3.21-28.38-18.6-100.58-25.73-120.71-8.09-22.86-9.18-30.85-5.08-37.41,2-3.14,2-7.25.07-17.67-2-11.12-3.76-14.66-9.53-19.56-3.88-3.28-9.94-6.72-13.48-7.63-9.11-2.35-11.85-9.71-13.32-35.8-1.22-21.56-1.06-22.81,3.71-27.89a33,33,0,0,1,12.67-7.52c15-4.32,72.21-4.88,119.52-1.18,34.25,2.68,48.75,3,59.23,1.34A263.12,263.12,0,0,1,866.7,389c12.78-.35,15,.2,19.79,5,5.7,5.71,8.78,19,6.51,28-.73,2.88-4.77,7-9.39,9.53-11.58,6.38-59.49,20.77-92,27.62-15.25,3.21-31.34,6.72-35.76,7.78l-8,1.93,3.29,7.89c6.62,15.83,5.63,15.53,51.2,15.73,22.54.1,46.77.95,53.85,1.9,9.51,1.27,19.31.62,37.55-2.48a362.84,362.84,0,0,1,50.42-4.37c23.18-.16,27.24.4,40.76,5.68,8.26,3.22,17.68,6.86,20.93,8.1,7.06,2.68,17.13,13.71,22.95,25.1,4.68,9.19,8.61,10.87,25.41,10.92,10.56,0,12.12.74,22.17,10.14,13.88,13,21,25.27,22.63,39l1.3,10.94h-6.74c-3.7,0-6.73.76-6.73,1.68,0,3.19,15.86,18,23.47,21.88,15.65,8,22.89,22.09,28.14,54.62,2.44,15.14,1.87,57.87-.81,60.55-.6.6-2.91.11-5.14-1.08s-5.31-1.4-6.84-.45-6.78.8-11.68-.31c-7.9-1.8-26.8-.95-35.72,1.61-2.69.76-3.23,6.55-3.28,34.74-.1,54.55-11.23,92-38.2,128.59-31.07,42.15-81.22,52.9-127.68,27.36-18.36-10.09-26.82-17-36.92-30.33-6.74-8.87-10.39-11.66-17.61-13.49-5-1.27-16.39-5.65-25.3-9.74s-18.56-7.41-21.45-7.39c-7.49,0-68.11,20.07-72.71,24-2.71,2.32-4.27,7.92-5.32,19.12-2.84,30.16-8.17,58.64-15.36,82.06-6.7,21.83-7,23.71-3.57,26.19s3.42,4.19.19,26.64c-1.9,13.18-4.47,25-5.69,26.2s-6.26,3-11.17,3.87c-7.51,1.37-9.74.9-14-2.94l-5-4.57,5.92-18.24c9.74-30,27.69-107.36,29.56-127.36,1.78-19.08,0-25-7.39-25a58.31,58.31,0,0,0-13.37,2.2c-12.76,3.73-77.87-1.25-99.2-7.6-26.6-7.92-44.59-12.43-45.58-11.44-.49.49-2.35,13.41-4.13,28.71-3,25.8-6.07,39.71-9.88,45-.85,1.18-3.74,8.9-6.41,17.16-8.23,25.37-9.6,27.22-18.87,25.55-4.37-.79-8.28-1.73-8.69-2.08s1.76-6.9,4.83-14.56,5.57-17.38,5.57-21.61c0-4.65,1.59-9.27,4-11.7s5-9.81,6.38-17.7c3.32-19.25,6.84-51.86,5.73-53-.51-.51-12.8-1.86-27.31-3-37.64-3-55.73-6.82-73-15.6l-15.09-7.67L410.15,878c3.21,49.93,2,91.26-3.29,111.1-8.33,31.34-23.31,57.6-47.72,83.7-19.52,20.86-55.28,42.88-83.34,51.31-14.22,4.27-48,6-64.76,3.36Zm77.34-71.7c14.11-7.15,25.09-18.46,40.95-42.16C353.45,977.54,361.84,942,354,908.82c-4.49-19-12.58-32.86-27.07-46.29-20-18.49-47.18-29-75.11-29-36.2,0-76.44,27.32-94.71,64.31-6.34,12.83-6.91,15.79-7.57,39.22-.79,27.86,2.38,48.41,12,77.44,7.31,22.18,12,28.68,27.27,37.73,14.48,8.6,31.16,11,67.86,9.84,17.14-.55,22.41-1.6,31.72-6.32Zm-6.06-16.1c-3.47-6.49-2.67-8.73,3.14-8.73,4.53,0,5.36,1,5.36,6.44,0,7.46-5,8.81-8.5,2.29ZM189,1030.37c-4.15-5.92-4.12-7.24.21-8.9s9.38,2.29,9.38,7.35c0,5.88-5.89,6.83-9.59,1.55Zm33.77-5.69c-12.52-5.83-28.89-21.69-40.64-39.36-6.3-9.48-10.44-13.92-11.45-12.28-2.92,4.72-4.59-1.74-3.21-12.38,8-61.51,32.19-94,75.88-101.66a79.36,79.36,0,0,1,85,42.58c19.93,40-3.09,97-48.15,119.27C262.13,1029.75,237.2,1031.42,222.74,1024.68Zm55.74-8.34c35.07-17.26,58.15-59.8,51.21-94.36-3.55-17.66-9.88-29.08-22.54-40.63-14.66-13.37-29.4-18.76-50.66-18.52-37.29.42-63.26,21.27-77.29,62-5,14.59-7.94,39.37-4.88,41.37,1.17.77,6.15,7.79,11.06,15.6,10.5,16.72,26.78,32.61,39.5,38.58,13.64,6.39,35.75,4.71,53.6-4.08Zm-34-20.93c-11.62-4.29-25.25-16.16-32.22-28-7.12-12.16-6.29-25.61,2.67-43.14,7.5-14.65,20.09-24.93,36.32-29.65,28.27-8.22,52.27,6.73,60.11,37.42,6.88,27-1.94,49.68-23.66,60.82C276.59,998.48,256.1,999.72,244.45,995.41ZM278.17,992c18.92-6.34,30-21.78,30.21-42.24.19-15.64-3.66-28.2-11.62-37.85C288,901.35,279.11,897.22,265,897.2c-15,0-32.23,8.76-41,20.91-6.18,8.51-12.48,26-12.48,34.66,0,7.57,13,25,24.38,32.57,12.56,8.4,14.24,8.58,14.24,1.54,0-3,1.54-6,3.51-6.78,5.34-2,10.48,2.45,10,8.76s2.79,7.1,14.57,3.16Zm14.26-30.4c-6.36-2.5-7.41-5.56-3.32-9.64,6.41-6.41,20,.36,15.38,7.67C301.68,964.11,299.62,964.44,292.43,961.62Zm7-5.78c0-1.18-1.51-2.15-3.35-2.15s-2.75,1-2,2.15a4.6,4.6,0,0,0,3.35,2.14A2.09,2.09,0,0,0,299.41,955.84Zm-74.58-4.63c-3.51-3.51-3.41-10.24.18-11.62,1.57-.6,5.5-.08,8.73,1.15,4.4,1.67,5.71,3.45,5.2,7.06-.79,5.57-9.78,7.74-14.11,3.41ZM235,947.49c0-2.64-6-4.75-7.39-2.58a2.67,2.67,0,0,0,.29,3.12c2.05,2,7.1,1.66,7.1-.54Zm32.61-24.26c-3.38-3.38-3.31-11.71.11-13,5.31-2,12.33,2.4,12.33,7.77,0,7-7.48,10.19-12.44,5.24Zm8.15-6.14c0-1.11-1.44-2-3.21-2-3.32,0-4.27,2.53-1.85,4.95,1.71,1.71,5.06-.22,5.06-2.93Zm-17,70.34c-.27-2.56-3.21-2.07-4.13.7-.47,1.42.3,2.19,1.72,1.72s2.5-1.56,2.41-2.42ZM341,959.06c-1.72-4.49.62-9.66,4.37-9.66,3.5,0,6.6,7.34,4.52,10.71S342.35,962.71,341,959.06ZM155,943.73c-.82-.81-1.49-4.7-1.49-8.63,0-8.74,5.67-9.92,7.75-1.61C162.66,939.11,158,946.74,155,943.73Zm156.18-76c-1.37-4.33,2-10.63,5.66-10.63,2.17,0,2.5,6.63.58,11.63C315.61,873.46,312.84,873,311.17,867.77Zm-98.8-13c-2.11-3.41,6.8-10.69,11.08-9,1.82.7,3,3.24,2.58,5.79C225.29,856.71,215.07,859.14,212.37,854.77ZM707.74,998.21c9-29.3,11.85-42.31,14.43-67.05,1.35-13,3.27-27.93,4.26-33.23s1.51-9.91,1.16-10.26-4.5,0-9.23.74l-8.59,1.37,3.24,6.49c4.66,9.35,2.39,31.41-8,77.81-4.76,21.24-8.66,39.34-8.66,40.23s1.32,1.61,3,1.61C701.15,1015.92,704.34,1009.21,707.74,998.21ZM531,941.14c1.54-5.7,8.67-58.28,8.67-63.89,0-1.55-8.87-2.06-9.8-.56-.67,1.09-2.6,14.45-4.29,29.69s-4,30.26-5.22,33.36c-2.95,7.77-2.72,9.22,1.61,10.2,5.49,1.25,6.62.15,9-8.8Zm465-45.36c16-8,33.28-24.59,40.53-38.9,8.06-15.91,13.82-40.87,13.76-59.62-.06-18.5-2.34-30.57-8.9-47l-4.55-11.42-10.95,1.45c-12.4,1.64-16.66,4.22-10.29,6.24,2.37.75,8.15,5.54,12.85,10.63,21.48,23.31,20.32,70.42-2.44,98.43-16.33,20.1-39.94,28.91-70.3,26.23-9.31-.83-16.91-.68-16.87.33.13,3.27,7.68,11,15.16,15.6,11,6.69,26.1,6,42-2ZM693.36,893c.49-.49-8.05-1.5-19-2.22-39.07-2.61-66.73-13-86.52-32.59-9.71-9.6-22-29.76-23.19-38.2-.26-1.74-3.72-5.9-7.71-9.25-9.06-7.63-17.54-26.23-23.35-51.24-8.33-35.88-17.72-98.54-19-126.79-1.45-32.08.06-42.59,12.62-87.77,14.29-51.42,23.67-98.65,23.87-120.16.41-43-17.28-64.22-62.75-75.14-44-10.57-86.41.87-109.12,29.47-10.25,12.9-13.76,20.47-23.67,51-15.23,47-23.45,81.5-28.12,118-1.29,10-2.87,21.43-3.51,25.34-1.15,7-1.08,7,3.77,4,6.57-4.09,18.4-6.15,20.05-3.49,2.4,3.9-3.35,33-8.71,44.05-6.1,12.6-13,16.95-21.7,13.65-8.13-3.09-8.37-1.35-1,7.06,4.46,5.08,12.6,9.93,26,15.48C363.28,663,376,671.9,392.42,689.6c5.72,6.16,10.78,10.82,11.24,10.37s-1.12-6.37-3.5-13.14c-17.31-49.26-19.71-110.33-6.35-162.24,2.18-8.48,4.52-16,5.2-16.66,3.42-3.41,3.19,2.76-.66,18-12.24,48.52-11.69,97.25,1.64,144.65,7.06,25.11,16.53,48,24.55,59.27,10,14.13,13.31,21,22.14,46.32,7.8,22.42,29.8,67.49,36.62,75,7.48,8.26,30.05,16.68,56.41,21,8.85,1.46,26.71,6,39.7,10.17,19.23,6.13,29.56,8,55.78,10.09,30,2.38,56.09,2.63,58.17.54Zm-233-452.12c-5.41-5.42-5.4-9.49,0-18.3,4.26-6.89,15.51-13.89,22.33-13.89,8.95,0,8.21,23.06-1,32.3-5.41,5.41-15.88,5.35-21.35-.11Zm20.33-6.33c4-7.74,4.38-21.57.59-21.55-6.58,0-20.5,13.18-20.84,19.68-.17,3.23,7,8.2,11.82,8.2C475.76,440.9,478.41,438.91,480.65,434.57ZM708.76,884.94c21.53-2.31,55.18-10.76,64.74-16.24,5.75-3.31,5.82-3.32-11.72,1-20.9,5.21-60.32,9.57-88,9.74-37.76.23-41.79-1.52-73.21-31.69-23-22-26.31-24.9-29.28-25-2.27,0,5.19,14.11,13.34,25.29,13.14,18,42.86,32.52,75.34,36.72,19.92,2.58,25.53,2.59,48.76.09Zm9.62-13c31.88-4.08,50.52-8.11,82.66-17.87,40.79-12.4,70.84-18.67,87.33-18.21s23.66-1.52,27.78-7.8c7.08-10.81,1.73-17.76-9-11.74-7.58,4.24-43.45,14.94-46.36,13.82-1.65-.63-9.15,1.63-16.66,5-16.3,7.38-26.88,10.15-51.21,13.4-10,1.34-25.48,4.26-34.33,6.48s-27.68,5.54-41.84,7.37c-31.9,4.13-57.12,9.72-55.52,12.31,1.3,2.1,29.76.7,57.18-2.8Zm298.26-13c27.3-27.3,30.83-74.8,7.37-99.19-11.4-11.86-22.53-15.35-37.38-11.72-13.67,3.35-20.94,7.17-34.39,18.12-6.17,5-12.45,9.54-14,10-1.9.63-2.91,7.58-3.36,23.26-.55,19.21.21,25.36,5.4,43.8l6,21.46,20.32.33c17.78.29,20.67.88,23.18,4.67s3.74,4,9.64,2c3.72-1.3,11.44-7,17.14-12.74ZM979.5,848c-14-7-22.11-21.3-23.19-40.48-.77-13.6-.31-15.53,6-25.41,7.7-12,18-19.4,26.94-19.4,3.3,0,10.09,2.4,15.09,5.34,27.79,16.28,26.66,66.48-1.8,80.25C991,853.91,991.16,853.92,979.5,848Zm23.36-5c12.59-7.43,19.94-27,16.62-44.22-2.18-11.37-4.15-13.4-9.69-10-4.19,2.58-5.09,2.33-8.7-2.42-4.88-6.42-3.55-9.45,3.38-7.71,7.82,2,6.12-1.73-3.21-7-10-5.6-11.43-5.69-20.74-1.27-10.82,5.13-20.27,21.2-20.27,34.44,0,28,23.76,49.29,42.61,38.15Zm-25.45-8.49c0-6.81,5.63-9.19,10.36-4.38,3.36,3.41,3.32,3.84-.58,6.73C981,841.51,977.41,840.66,977.41,834.54Zm27.6-14.73c-1.93-4.25-1.87-6.19.29-8.79,2.49-3,3.17-3,6.85.35,4.86,4.41,4.32,12.18-.92,13.18-2.33.45-4.66-1.33-6.22-4.74Zm6.73-2.24c0-.52-1-1.54-2.14-2.27s-2.15-.3-2.15,1a2.22,2.22,0,0,0,2.15,2.27C1010.78,818.52,1011.74,818.09,1011.74,817.57Zm-24-2.73a27.16,27.16,0,0,1-4.77-8.43,9.15,9.15,0,0,0-5.62-5.69c-2.83-.74-4.22-2.94-4.22-6.67,0-6.47,3.3-7.12,9.19-1.81a17,17,0,0,0,9.82,3.75c5.37,0,5.67.57,5.67,10.7,0,11.85-4,15.08-10.07,8.15Zm6.85-8c0-2.88-1-5.84-2.16-6.58-2.72-1.68-5.15,4.3-3.5,8.6C990.87,813.94,994.58,812.62,994.58,806.85ZM676,861.3c46.61-9.51,70.52-15.76,111.31-29.1C839.72,815,870,810.1,877.36,817.47c2.89,2.9,4.53,2.84,15.16-.53Q919,808.56,895.15,787c-18.58-16.79-52.15-68.35-58.32-89.57-6.46-22.2-.65-50.09,16.45-79.12,23.39-39.69,54.07-55.88,105.9-55.87,36.66,0,64.39,6,94.23,20.36,7,3.37,13.15,5.67,13.71,5.11,1.39-1.39-21.72-29.33-31.81-38.45-5.47-4.94-8.8-10.12-9.74-15.14-1.95-10.37-12.56-24.47-21.12-28-6-2.5-9.57-2.48-24,.14-26.17,4.73-68.07,6.29-88.57,3.3-13.16-1.93-18.5-2-20.66-.19s-24.75,2.22-78.34,1.75c-67.82-.6-75.7-1-78.08-4.28s-3.58-3.39-17.52.13c-16.17,4.09-17.08,5.25-14.35,18.42l1.74,8.38,16.07.14c13.73.13,18.21,1.2,30.68,7.34,26.5,13,47.19,39.45,58.84,75.06,4.42,13.53,5.56,22,6.41,47.87,1.22,37.24-1.46,55.89-10.48,72.81-14.22,26.68-49.14,52.61-89.85,66.7-29.63,10.25-83.8,13.56-117.28,7.15-20.22-3.87-20.37-3.87-13.6,0,2.95,1.69,4.45,3.1,3.33,3.14s2.27,2.8,7.52,6.13S594,834.37,604,844.19c20.49,20.16,29,26.13,35.4,24.68,2.4-.55,18.86-4,36.56-7.57Zm-186.59.2c-4.76-3.13-6.78-3.54-8-1.59-3,4.72-1.8,5.81,6.33,5.8l8.05,0-6.36-4.19Zm451.57,2.9c0-.72-2.57-10.62-5.71-22-4.4-15.91-5.71-25.49-5.69-41.59,0-11.51-.66-20.92-1.51-20.92-3.35,0-24.37,4.38-25.26,5.27-.52.52,1.1,3.54,3.59,6.71s4.54,8,4.54,10.8c0,3.58,1.55,5.42,5.38,6.38,7.82,2,9.3,10.46,3.61,20.84-4.55,8.31-4.55,8.38-.44,16.45C924.92,857.06,940.94,870.52,940.94,864.4Zm-464.82-4c1.58-4.12,0-8.21-8.31-21.46-3.7-5.9-10.95-20.86-16.11-33.25-14.63-35.14-37.07-78.13-47.27-90.59C378.75,683.69,340.8,663.74,293,656.44c-35.66-5.43-68.91-2.69-104.43,8.62-30.94,9.84-47.19,19.83-64.11,39.38C100.6,732,79.62,770.93,83.37,780.7c.78,2,5,5.18,9.37,7,10.82,4.52,41.86,3.25,142.85-5.83,25-2.24,36.38-2.32,54-.35,36.28,4.05,51.14,10.85,95.24,43.55,15.84,11.74,27.42,18.42,40.77,23.5,43.34,16.49,48.28,17.64,50.53,11.78Zm-76.21-18.49c-2.73-2.06-5.23-3.48-5.56-3.15s1.59,5.33,4.25,11.12l4.85,10.52.71-7.38C404.71,847.28,403.75,844.76,399.91,841.87ZM837,853c35-7.21,48.15-10.56,48.15-12.29,0-3.35-59.83,9.19-77.42,16.22-8.53,3.41-2.45,2.59,29.27-3.93Zm-75.22-3.16c11.8-2.83,30-6.26,40.41-7.61,13.36-1.74,25.23-5.12,40.23-11.45,11.7-4.93,21.28-9.77,21.28-10.75,0-4.47-33.7,3.19-78.32,17.8-17.7,5.8-37.49,11.94-44,13.65-20,5.29-2.7,3.89,20.38-1.64Zm-82.29-46c36-9.45,67.51-27.12,88.16-49.42,20.89-22.56,25.11-38.13,23.92-88.21-.8-33.54-2.92-44.44-12.91-66.31-11.93-26.12-28.25-43.85-50.14-54.45-10.49-5.08-16.95-6.77-26.1-6.83-6.68,0-12.75.53-13.48,1.26s.71,6.52,3.22,12.87c4.93,12.47,17.84,76.75,21.73,108.1,2.35,19,2.28,19.61-4.48,39.64-10,29.68-18.23,45.52-30.53,59-9,9.84-10.45,12.5-8.29,15.1s1.62,3.53-3.05,5.31c-17.9,6.8-85.72,16.61-98.4,14.23-7-1.3-8.45-3-16.48-18.56a305.3,305.3,0,0,1-15-35.87c-3.44-10.31-6.29-17.3-6.34-15.53-.18,5.93,10.13,48.13,14.76,60.42,4.93,13.09,6.89,15.41,15.12,18,4.58,1.4,5,1.18,2.7-1.55s1.3-3.37,29-4.55a646.32,646.32,0,0,0,64.39-6.76c18-3,33.23-5.43,33.8-5.43s1,2,1,4.41c0,9.08-25.08,16.27-66.92,19.19l-26.41,1.85,32.18-.76c23.31-.56,36.71-2,48.59-5.07Zm65.3-86.47C723.47,712.28,721.48,710.7,723,700c.64-4.58,1.67-9.15,2.29-10.15s5.92-.55,11.79,1a215.35,215.35,0,0,0,21.45,4.3c10.36,1.43,10.78,1.75,10.75,8.26,0,9.17-2,15.93-5,17.05C762.89,721,754.14,719.56,744.79,717.34Zm19.79-9.61.66-6.74-14.61-2.48c-8-1.36-16.29-3-18.35-3.6-3.07-.92-3.76.23-3.76,6.26,0,7,.52,7.53,11.27,10.74,6.19,1.86,14.16,3.19,17.7,3,5.54-.35,6.53-1.35,7.09-7.14Zm-21-34c0-6.22,5.37-9.53,9.22-5.68,3.07,3.07-.41,9.54-5.69,10.58-2.55.5-3.53-.86-3.53-4.9Zm-7.15-24c-2.34-2.34-1.63-8.2,1.53-12.52,2.8-3.82,3.15-3.84,6.65-.34,4.69,4.69,2.77,14.29-2.86,14.29-2.14,0-4.53-.64-5.32-1.43Zm7.15-7.4c0-1.18-1-1.55-2.14-.82a4.7,4.7,0,0,0-2.15,3.47c0,1.18,1,1.55,2.15.82A4.69,4.69,0,0,0,743.54,642.33ZM665.47,798.47c10.87-3,21-7.65,16.92-7.77-1.18,0-9.87,1.29-19.31,2.95s-25.37,3.73-35.4,4.59-20.17,2.42-22.53,3.46c-6.94,3.08,48.05.12,60.32-3.23ZM79,780c-1.27-9.49,7.08-29.55,22-52.91,4.42-6.9,6.28-11.12,4.14-9.36C94.37,726.57,72,769.92,72,781.94A5.45,5.45,0,0,0,75.73,787a35.77,35.77,0,0,1,4.08,1.23c.19.14-.18-3.58-.81-8.26Zm833.74-2.13c7.5-1.08,14.07-2.41,14.61-2.94s-2.93-5.18-7.7-10.33C888,730.49,883.71,681.59,908,633.3c18.67-37.09,46-51.65,97.27-51.79,14.75,0,29.71.66,33.25,1.56,11.46,2.92.38-2.41-14.33-6.89-40.05-12.2-85.39-13.07-114-2.19C876,587,848.29,623.16,840,665.79c-3.22,16.53-.57,31,9,49.21,10.09,19.18,43.07,64.9,46.78,64.86,1.85,0,9.5-.93,17-2ZM662,775.61c0-2.69-2.28-2.69-6.44,0-2.6,1.68-2.29,2.08,1.61,2.11C659.84,777.74,662,776.79,662,775.61Zm277.39-7.38a70.45,70.45,0,0,0,14-9.15l7.07-6.06-6.52-19.95c-15.52-47.52-11-79.26,13.29-93.51,20.68-12.11,62.51-16,108.46-10,12.15,1.57,22.7,2.24,23.45,1.5,2.7-2.7-11.63-19.72-23.09-27.43-18.67-12.56-39-17.74-69.66-17.73-50,0-76,13.78-94.17,49.83-19.22,38.16-20.39,73.76-3.46,105.09,5.49,10.17,20.9,30.5,23.14,30.54a74.91,74.91,0,0,0,7.51-3.08Zm48.74-25.09c25.45-6.33,72.22-12.54,105.59-14,18.39-.82,31.29-2.31,32.23-3.72,2.62-3.92,1.78-23-1.66-37.56-1.78-7.56-7-21.67-11.5-31.37l-8.26-17.63-13.68-2.61c-7.52-1.43-28.76-3.13-47.2-3.77-52.71-1.82-79.21,6.38-89.54,27.72-8,16.42-5.57,46.13,6.22,77.64,3.69,9.84,5.34,12,8.16,10.83,2-.83,10.79-3.31,19.64-5.51ZM1136,704.8c.16-19.48-2.9-39.55-8.46-55.36-4.79-13.63-8.85-18.7-19.27-24.05l-7.5-3.85,12.2,24.63c13.45,27.15,18.83,46.56,19.06,68.71.21,20.24,3.79,11.14,4-10.08Zm-764.74-29c-4.72-4.07-17.27-11.2-27.89-15.85s-23.3-11.87-28.17-16.05l-8.85-7.6-4,4.46c-3.59,4-5.4,4.27-16.89,2.8-20.44-2.62-32.49-1.78-61.15,4.23-31.88,6.69-50.22,12.49-59,18.63-3.54,2.48-4.51,3.79-2.15,2.91l17.16-6.43c23.9-8.95,47.19-12.67,79.39-12.67,41.45,0,72.38,7.32,103,24.41,8.26,4.61,15.5,8.42,16.09,8.46s-2.79-3.24-7.51-7.3Zm152.73-10c-.68-1.71-1.19-1.2-1.29,1.3-.1,2.26.41,3.53,1.12,2.81s.79-2.56.17-4.11Zm2.69-86.49c1.4-9.44,3-19.1,3.59-21.46.91-3.75.76-3.83-1.22-.7-4,6.33-10.81,44.64-10.81,60.7,0,8.55.71,21.72,1.59,29.26,1.42,12.29,1.73,10.35,2.95-18.45.74-17.71,2.5-39.91,3.9-49.35ZM1091,591.22c2.57-1.62,2.64-3.39.45-10.71-2.44-8.13-3-8.65-8.44-7.19a48,48,0,0,1-11.71,1.4c-3.24-.1-5.9.26-5.9.81s3,4.75,6.62,9.35c6.61,8.35,12.63,10.36,19,6.34Zm-10.58-23.78c0-1.29-2.4-1.61-5.9-.77-8.42,2-8.71,3-.89,3C1077.34,569.63,1080.4,568.65,1080.4,567.44Zm-9.06-7.34c.33-.33-.36-3.13-1.54-6.22-1.88-4.94-3-5.46-9.18-4.31-10.48,2-12.18,4.65-6.1,9.62,3.65,3,6.88,3.85,10.72,2.89a29.17,29.17,0,0,0,6.1-2Zm8.86-2.51c-3.14-3.78-4.66-2.68-2.84,2.07.74,1.93,2.26,3,3.37,2.26S1081.72,559.42,1080.2,557.59Zm-24.47-13.71c-6-2.56-13.44-2.56-15,0-.82,1.33,2.62,2.09,9,2C1057.44,545.77,1059,545.27,1055.73,543.88ZM868,505.32c0-.72-15.69-3-34.87-5-28-3-42.69-3.4-74.38-2.06-27.12,1.15-39.79,2.47-40.36,4.21-.47,1.41,1.82,3,5.19,3.5,9.08,1.48,144.42.9,144.42-.61Zm89-.25c20.51-2.47,29.47-6.23,14.91-6.26-17.07,0-71.77,5.21-71.77,6.88,0,2.48,34.26,2.1,56.86-.62Zm-257.7-8.86a90,90,0,0,0,1.3-14.59c0-8.95-2.29-10.69-14.07-10.69-6.65,0-7.12.42-5.48,4.83a102.84,102.84,0,0,1,3.38,15.56c2,13.4,2.08,13.58,8.38,12.38,3.72-.71,5.56-2.84,6.49-7.49Zm15.41.21c.64-1,9.75-1.88,20.25-1.88h19.08l-5.08-11c-2.8-6-5.93-11.82-7-12.84s-9.8-1.26-19.49-.51l-17.63,1.36v14.5c0,13.48.31,14.42,4.33,13.37,2.38-.62,4.85-2,5.49-3ZM942,495.7c19.74-2,24.76-3,17.17-3.41-15.19-.86-29.33-.13-51,2.62-20.67,2.62-26.16,6.71-6.44,4.8,6.79-.66,24.89-2.46,40.23-4ZM558.12,445.53c5.31-27.42,3.44-47-5.56-58.27l-4.27-5.37,3.16,9.22c5,14.73,6,28,3.47,49.79-1.29,11.21-2.85,22.79-3.47,25.74L550.32,472l2.37-5.37c1.31-2.95,3.75-12.45,5.43-21.11Zm161.29,19.63a17.61,17.61,0,0,0-7.51,0c-2.07.54-.38,1,3.75,1S721.47,465.7,719.41,465.16Zm43.44-4.82c19.73-4.88,17-5.5-5.66-1.3-9.28,1.72-20.73,3.49-25.45,3.93-7,.66-6.38.86,3.22,1.08C741.45,464.2,754,462.53,762.85,460.34Zm-76.16-.13a5.69,5.69,0,0,0-4.42-2.15c-1.7,0-3.09,1-3.09,2.15s2,2.14,4.41,2.14,3.82-1,3.1-2.14Zm-28.19-5.37c-.79-2,0-3.22,2.21-3.22,3.85,0,4-.36,2.14-5.19-2-5.2-7.14-4-9.49,2.15s-1.19,9.48,3.35,9.48C658.51,458.06,659.23,456.76,658.5,454.84Zm43.7-13.1c-.72-.71-2.57-.78-4.12-.16-1.71.68-1.2,1.19,1.3,1.29,2.26.09,3.53-.41,2.82-1.13Zm153.61-7.47c6-1.61,7.77-2.93,6.14-4.57s-6.06-.89-15.3,2.57c-7.14,2.67-13,5.34-13,5.94,0,1.19,9.15-.44,22.15-3.94Zm-26.62-1.19c2.15-1.85-7.65-.48-10.55,1.48-2.35,1.59-1.48,1.79,3.22.73C825.4,434.5,828.7,433.51,829.19,433.08Zm-9.81-7.29c12.94-3.72,7.87-4.62-11.75-2.08-9.87,1.28-30.51,3.2-45.85,4.25C734,429.88,734,429.89,772.51,429,793.75,428.55,814.84,427.09,819.38,425.79Zm66.69-1.14c3.82-3.82,4.6-19.22,1.09-21.39-3.74-2.31-4.32,0-1.79,7.29,3.22,9.26-.46,13.87-9.68,12.1-6.28-1.2-6.41-1.09-2.46,2.05,5.28,4.21,8.6,4.2,12.84-.05Zm-181-2c8.4-4.34,8-5.31-2.25-5.31-7.15,0-8.59.72-8.59,4.29C694.19,426.73,696.61,427,705,422.6Zm95.37-7.47c4.81-1.3,1.81-1.82-11.8-2.07-10-.18-22.36-.63-27.39-1s-9.68.17-10.32,1.21,1.55,1.89,4.86,1.91,7.37.88,9,1.92c3.23,2,25.28.82,35.65-2Zm-131.12-3.05a3.7,3.7,0,0,1,1.17-4.35c4.11-2.54,2.42-5-4.18-5.92-5.73-.84-6.3-.44-5.08,3.51.77,2.46,2.23,4.79,3.25,5.18s1.86,2.14,1.86,3.88.93,2.6,2.05,1.9S669.9,413.69,669.28,412.08Zm202.59-1.38a2.86,2.86,0,0,0-5.62,0c-.42,1.26.84,2.3,2.81,2.3S872.29,412,871.87,410.7Zm-26.41-2c3.66-1.57,3.34-1.84-2.15-1.84a33.07,33.07,0,0,0-10.72,1.84c-3.66,1.57-3.35,1.85,2.14,1.85A32.85,32.85,0,0,0,845.46,408.71Zm-163.07-4.29c.73-1.18.31-2.15-.94-2.15a2.22,2.22,0,0,0-2.27,2.15c0,1.18.42,2.15.94,2.15S681.66,405.6,682.39,404.42Zm152.34-2.15c3.09-1.32.83-1.88-8-2-6.9-.08-12.34.8-12.34,2,0,2.59,14.37,2.59,20.38,0Zm-103.26-4.5c13.09-.22,13.11-.23,4.56-2.28-10.42-2.51-37.57-.24-33,2.76,1.66,1.1,5.79,1.49,9.18.86A160.28,160.28,0,0,1,731.47,397.77Zm148.21.45c3.11-.18,3.56-.86,1.76-2.66-2.64-2.64-29.53-2.83-33.55-.24S859.12,399.4,879.68,398.22Zm-194.07-3.68c0-.47-3.86-.85-8.58-.85s-8.58.75-8.58,1.67,3.86,1.3,8.58.85S685.61,395,685.61,394.54Zm95.48,1.17c-12.49-2.58-24.46-2.51-20.38.13,1.77,1.14,9,2,16.09,1.86,12.48-.2,12.61-.26,4.29-2ZM530.66,357.77c-5.6-6.39-10.26-17.2-10.26-23.8,0-7.83,12.64-19.9,28.67-27.36,11.24-5.24,25-6.9,25-3,0,1.18.73,2.14,1.61,2.14s1.66-6.64,1.73-14.76l.11-14.77-16-1c-14-.9-16.67-.47-21.39,3.5-22.4,18.81-22.69,19.35-15.38,28.65,2.38,3,3.82,6,3.21,6.61-1.65,1.65-11.82-8.5-11.82-11.8,0-2-3.22-2.84-10.55-2.84-5.81,0-12.08-.59-13.95-1.31s-3.39-.33-3.39.84c0,2.77,15.67,9.05,22.57,9.05,2.93,0,5.32,1,5.32,2.14,0,3.24-12,2.58-20.87-1.14a84.26,84.26,0,0,1-15.46-9.08,137.18,137.18,0,0,0-20-11.64c-6.8-3.22-12.36-6.85-12.36-8.08,0-2.95-.28-3,12.19,3,11.43,5.52,33.6,11.93,41.22,11.93,4.29,0,4.52-1.07,4.52-21.32V252.34l-5.9,3.08c-3.24,1.69-7.83,3.06-10.19,3-6.79,0-20.47-7.11-32.85-16.95-13.83-11-26.19-19.47-28.35-19.47-.88,0,.81,6,3.75,13.23,7.7,19.07,8.88,42.07,3,57.72-2.48,6.57-7.41,14.71-11,18.1s-6.43,7-6.43,8c0,2.21,21,.2,41.45-4,16.75-3.41,25.84-3.82,24.15-1.09-.64,1-10.35,3.54-21.58,5.56-19.21,3.46-20.42,4-20.42,8.91,0,3.07-1.54,5.75-3.75,6.48-8.28,2.77-31.16,13.77-30.34,14.59.48.48,6.66-1.16,13.73-3.65,9.82-3.45,17.92-4.51,34.31-4.48,24.93,0,43.09,4.12,63.3,14.2,15.09,7.52,17.51,7.94,12.4,2.11ZM412.05,316.45c.73-1.18.36-2.14-.82-2.14a4.69,4.69,0,0,0-3.47,2.14c-.73,1.18-.36,2.15.82,2.15a4.7,4.7,0,0,0,3.47-2.15Zm265.37-6.13c1.16-16.69-2-24.55-7.81-19.69-3.86,3.21-4.27,11.71-1,21.08C671.38,319.66,676.84,318.8,677.42,310.32ZM349.83,311.9c26.72-6.45,25.64-6.07,23.42-8.26s-34.83,4.85-43.43,9.52c-8.25,4.48-2.19,4.1,20-1.26Zm312.78-8c-.74-8.17-.29-13.1,1.28-14.07,3.82-2.36,2.81-5.53-1.76-5.53-5.38,0-10.85,7.86-10.85,15.59,0,5.1,8,16.59,11.5,16.59C663.31,316.45,663.24,310.79,662.61,303.87Zm-255.4,4.53c6.76-7.6,10.57-21.14,11.76-41.79,1.87-32.42-5.34-46.71-23.6-46.71-7.43,0-8.55.77-11.76,8-4.82,11-4.8,42.7.05,58.47,7,22.95,15.6,30.94,23.55,22Zm20.94-11.27c6-11.77,6.24-18.1.71-18.89-5.13-.73-7.9,4.8-7.61,15.14.09,3.25-.58,5.91-1.49,5.91-2.29,0-6.65,10-5.06,11.59,2,2,9.17-5.37,13.45-13.75Zm220,2.69c0-5.6.87-11.88,1.84-13.94,1.48-3.15.69-3.76-4.9-3.76-6.42,0-6.67.34-6.67,9.18,0,8.37,4.51,18.71,8.17,18.71C647.4,310,648.1,305.43,648.14,299.82ZM635,303a58.06,58.06,0,0,1-1.75-13.41c-.13-6.12-1.1-8.58-3.39-8.58-5.36,0-5.32,14.21,0,21,5.55,7.05,7.19,7.36,5.09,1ZM385.23,304c0-1-1.3-3.52-2.89-5.69-2.08-2.85-3.34-3.24-4.48-1.39-.87,1.41-.42,4,1,5.69C381.69,306,385.23,306.77,385.23,304Zm238.11-3.77a43.77,43.77,0,0,1-2.1-12.87c0-7.66-3.33-9.62-8.15-4.8-6.3,6.3.38,23.17,9.17,23.17C624.78,305.72,625,304.59,623.34,300.22Zm-33.6-7.3c-1-8.06-.36-12,2.41-16.27,3.61-5.5,3.58-5.59-1.32-4.89-10.06,1.42-13.8,31.82-3.92,31.82,3.65,0,4-1.16,2.83-10.66Zm17.36-2.75c-.16-11.24-.83-13.54-4.14-14.18-4.74-.92-9.61,5.07-9.61,11.8,0,8.13,4.6,15.79,9.47,15.79,4.08,0,4.46-1.18,4.28-13.41Zm-228.31-1.84c0-4.45-1.63-5-6.21-2.1-4,2.51-1.39,9.08,2.91,7.43a6,6,0,0,0,3.3-5.33Zm141.27,1.52c3.14-2.83,9-8,13.07-11.49l7.36-6.35-11-2.64c-15-3.61-16.93-6.35-12.3-17.8,6.18-15.29,6.09-15.95-.83-5.92-6.27,9.09-6.66,10.81-6.67,29.5,0,21.61,1.05,23.11,10.38,14.7ZM376.65,274.38c0-3-1.27-5.13-3-5.13-3.58,0-5.93,5.22-4.28,9.52C371.19,283.48,376.65,280.19,376.65,274.38Zm57.93-7c0-12.61-2.33-19.13-6.46-18.05-3.06.8-3.86,3.13-3.79,11,.11,12,.68,13.21,6.08,13.21C433.57,273.54,434.58,272.05,434.58,267.37Zm-60.08-11c0-4.72-1-8.58-2.14-8.58s-2.15,3.86-2.15,8.58,1,8.59,2.15,8.59S374.5,261.09,374.5,256.37Zm2.15-18.49c0-3-.94-4.78-2.15-4s-2.14,3.74-2.14,6.69.93,4.78,2.14,4S376.65,240.83,376.65,237.88Zm53.64,6.62c0-4-6.7-16.11-8.34-15.1-2.88,1.78,2,16.25,5.48,16.25,1.57,0,2.86-.52,2.86-1.15Zm-11.47-23.44a5.63,5.63,0,0,0-4.89-3.31c-3.3,0-3.28.38.28,4.31C418.48,226.77,420.82,226.27,418.82,221.06Zm154.41-64.7c21.52-26.92,22.45-28.42,13.76-22-3.84,2.82-13.87,15.09-22.3,27.29-26.36,38.13-25.91,37.86,8.54-5.25Zm87.82-9.52C674.77,134,680.12,106,671.62,91.65s-33.26-19.77-51.85-11.33c-9.69,4.4-22.13,19.32-22.13,26.54a12.69,12.69,0,0,0,3.72,7.85c3.47,3.3,4.56,2.84,16.63-6.88,12.4-10,21.34-14.32,24-11.61.71.7,2.4,9,3.76,18.49,2.93,20.36,3.6,20-21.19,12.1-13.59-4.31-16.5-4.65-18.58-2.14-1.93,2.32-1.7,3,1,3,1.92,0,6.14,3.78,9.38,8.4C628.53,153.33,648.9,158.26,661.05,146.84Zm-20-32.61c-.55-6.2-1.65-12-2.44-12.84C636.91,99.5,614.81,114,614.81,117c0,1.15.24,2.1.53,2.12s4.4,1.42,9.12,3.12,10.62,3.14,13.1,3.19c4.15.09,4.43-.81,3.5-11.17Z"/></g></svg>